<svg xmlns="http://www.w3.org/2000/svg" viewBox="0 0 471.2 471.2">
  <path d="M227.6 444.2h-123c-33.3 0-60.4-27.2-60.4-60.5V87.5C44.2 54 71.4 27 104.7 27h125c7.4 0 13.4-6 13.4-13.5S237 0 229.7 0h-125C56.5 0 17.3 39.3 17.3 87.5v296.2c0 48.3 39.3 87.5 87.5 87.5h123c7.4 0 13.4-6 13.4-13.5s-6-13.5-13.4-13.5z"/>
  <path d="M450 226l-85.8-85.7c-5.3-5.3-13.8-5.3-19 0-5.4 5.3-5.4 13.8 0 19l62.7 63H134c-7.5 0-13.5 6-13.5 13.4s6 13.5 13.5 13.5h274L345 312c-5.2 5.3-5.2 13.8 0 19 2.7 2.7 6.2 4 9.6 4s7-1.2 9.5-4l86-85.7c5.3-5.4 5.3-14 0-19.2z"/>
</svg>
