<svg xmlns="http://www.w3.org/2000/svg" viewBox="0 0 512 512">
  <path fill="#000000" d="M509 248.5L434 173.8c-4.2-4.2-11-4.2-15 0-4.2 4.2-4.2 11 0 15l56.4 56.5h-209v-209L323.2 93c2.2 2 5 3 7.7 3s5.4-1 7.5-3c4.2-4.3 4.2-11 0-15.2L263.5 3c-4-4-11-4-15 0L173.8 78c-4.2 4.2-4.2 11 0 15 4.2 4.2 11 4.2 15 0l56.5-56.4v209h-209L93 188.8c4-4.3 4-11 0-15.2-4.3-4.2-11-4.2-15.2 0L3 248.5c-4 4-4 11 0 15L78 338.2c2 2 4.8 3 7.5 3s5.5-1 7.6-3c4-4.2 4-11 0-15l-56.6-56.5h209v209L188.8 419c-4.3-4-11-4-15.2 0-4.2 4.3-4.2 11 0 15.2l74.7 74.7c2 2 4.8 3 7.5 3s5.5-1 7.5-3l74.7-74.8c4.2-4.2 4.2-11 0-15-4.2-4.2-11-4.2-15 0l-56.5 56.4v-209h209L419 323.2c-4 4.3-4 11 0 15.2 2.2 2 5 3 7.7 3s5.4-1 7.5-3l74.7-74.7c4-4 4-11 0-15z"/>
  <linearGradient id="a" x1="-44.6" x2="-24.8" y1="639.1" y2="629.9" gradientUnits="userSpaceOnUse" gradientTransform="matrix(21.3333 0 0 -21.3333 996.333 13791.667)">
    <stop offset="0" stop-color="#FFF" stop-opacity=".2"/>
    <stop offset="1" stop-color="#FFF" stop-opacity="0"/>
  </linearGradient>
  <path fill="url(#a)" d="M509 248.5L434 173.8c-4.2-4.2-11-4.2-15 0-4.2 4.2-4.2 11 0 15l56.4 56.5h-209v-209L323.2 93c2.2 2 5 3 7.7 3s5.4-1 7.5-3c4.2-4.3 4.2-11 0-15.2L263.5 3c-4-4-11-4-15 0L173.8 78c-4.2 4.2-4.2 11 0 15 4.2 4.2 11 4.2 15 0l56.5-56.4v209h-209L93 188.8c4-4.3 4-11 0-15.2-4.3-4.2-11-4.2-15.2 0L3 248.5c-4 4-4 11 0 15L78 338.2c2 2 4.8 3 7.5 3s5.5-1 7.6-3c4-4.2 4-11 0-15l-56.6-56.5h209v209L188.8 419c-4.3-4-11-4-15.2 0-4.2 4.3-4.2 11 0 15.2l74.7 74.7c2 2 4.8 3 7.5 3s5.5-1 7.5-3l74.7-74.8c4.2-4.2 4.2-11 0-15-4.2-4.2-11-4.2-15 0l-56.5 56.4v-209h209L419 323.2c-4 4.3-4 11 0 15.2 2.2 2 5 3 7.7 3s5.4-1 7.5-3l74.7-74.7c4-4 4-11 0-15z"/>
</svg>
