<svg xmlns="http://www.w3.org/2000/svg" viewBox="0 0 54 54">
  <path fill="#ffffff" d="M27 13c-7.7 0-14 6.3-14 14s6.3 14 14 14 14-6.3 14-14-6.3-14-14-14zm0 26c-6.6 0-12-5.4-12-12s5.4-12 12-12 12 5.4 12 12-5.4 12-12 12z"/>
  <path fill="#ffffff" d="M51.2 21h-2c-.5-2-1.3-3.7-2.3-5.5l1.4-1.4c.5-.4.8-1 .8-1.8s-.3-1.5-.8-2l-4.6-4.6c-1-1-3-1-4 0L38.6 7C36.7 6 35 5.4 33 5v-2C33 1.2 31.8 0 30.2 0h-6.4C22.2 0 21 1.2 21 2.8v2C19 5.3 17.3 6 15.5 7L14 5.7c-1-1-2.8-1-3.8 0l-4.6 4.6c-.5.5-.8 1.2-.8 2 0 .7.3 1.4.8 2L7 15.4C6 17.3 5.4 19 5 21h-2C1.2 21 0 22.2 0 23.8v6.4C0 31.8 1.2 33 2.8 33h2c.5 2 1.3 3.7 2.3 5.5L5.7 40c-.5.4-.8 1-.8 1.8s.3 1.5.8 2l4.6 4.6c1 1 3 1 4 0l1.3-1.5c1.8 1 3.6 1.7 5.5 2.2v2c0 1.6 1.2 2.8 2.8 2.8h6.4c1.6 0 2.8-1.2 2.8-2.8v-2c2-.5 3.7-1.3 5.5-2.3l1.4 1.4c1 1 2.8 1 3.8 0l4.6-4.6c.5-.5.8-1.2.8-2 0-.7-.3-1.4-.8-2L47 38.6c1-1.8 1.7-3.6 2.2-5.5h2c1.6 0 2.8-1.2 2.8-2.8v-6.4c0-1.6-1.2-2.8-2.8-2.8zm.8 9.2c0 .4-.4.8-.8.8h-3.6l-.2.8C47 34 46 36 44.8 38l-.4.8 2.6 2.5c.3.3.3.8 0 1L42.4 47c-.3.3-.8.3-1 0l-2.6-2.6-.7.4c-2 1.2-4 2-6.2 2.6l-.8.2v3.6c0 .4-.4.8-.8.8h-6.4c-.4 0-.8-.4-.8-.8v-3.6l-.8-.2C20 47 18 46 16 44.8l-.8-.4-2.5 2.6c-.3.3-.8.3-1 0L7 42.4c-.3-.3-.3-.8 0-1l2.6-2.6-.4-.7c-1.2-2-2-4-2.6-6.2l-.2-.8H2.8c-.4 0-.8-.4-.8-.8v-6.4c0-.4.4-.8.8-.8h3.6l.2-.8C7 20 8 18 9.2 16l.4-.8L7 12.7c-.3-.3-.3-.8 0-1L11.6 7c.3-.3.8-.3 1 0l2.6 2.6.7-.4c2-1.2 4-2 6.2-2.6l.8-.2V2.8c0-.4.4-.8.8-.8h6.4c.4 0 .8.4.8.8v3.6l.8.2C34 7 36 8 38 9.2l.8.4L41.3 7c.3-.3.8-.3 1 0l4.7 4.6c.3.3.3.8 0 1l-2.6 2.6.4.7c1.2 2 2 4 2.6 6.2l.2.8h3.6c.4 0 .8.4.8.8v6.4z"/>
  <path fill="#ffffff" d="M27 17c-5.5 0-10 4.5-10 10s4.5 10 10 10 10-4.5 10-10-4.5-10-10-10zm0 18c-4.4 0-8-3.6-8-8s3.6-8 8-8 8 3.6 8 8-3.6 8-8 8z"/>
</svg>
